<?xml version="1.0" standalone="no"?>
<!DOCTYPE svg PUBLIC "-//W3C//DTD SVG 1.1//EN" "http://www.w3.org/Graphics/SVG/1.1/DTD/svg11.dtd" >
<svg xmlns="http://www.w3.org/2000/svg">
<metadata>Generated by IcoMoon</metadata>
<defs>
<font id="icons" horiz-adv-x="1024">
<font-face units-per-em="1024" ascent="960" descent="-64" />
<missing-glyph horiz-adv-x="1024" />
<glyph unicode="&#x20;" horiz-adv-x="512" d="" />
<glyph unicode="&#xe900;" glyph-name="javascript" d="M963.317 952.765c-4.229 4.608-10.173 7.235-16.428 7.235h-869.777c-6.255 0-12.199-2.627-16.428-7.235s-6.3-10.797-5.743-17.008l78.359-877.679c0.824-9.172 7.213-16.896 16.073-19.434l356.397-101.799c1.982-0.557 4.051-0.846 6.1-0.846s4.118 0.289 6.1 0.846l356.709 101.799c8.86 2.538 15.249 10.262 16.073 19.434l78.314 877.679c0.557 6.211-1.536 12.399-5.743 17.008zM222.609 358.867l155.826-43.23v444.015h89.043v-578.783l-244.87 67.917v110.080zM802.593 514.783l-23.463-272.696-222.609-61.217v102.422l150.261 41.293 5.565 83.478-155.826-26.847v378.435h267.13l-7.68-89.043h-170.407v-178.087l157.028 22.261z" />
<glyph unicode="&#xe901;" glyph-name="csharp" d="M512 960c-15.913 0-31.826-4-46-12l-374.957-210.696c-28.696-16.087-46.522-46.261-46.522-78.609v-421.391c0-32.348 17.826-62.522 46.522-78.609l374.957-210.696c14.174-8 30.087-12 46-12s31.826 4 46 12l374.957 210.609c28.696 16.174 46.522 46.348 46.522 78.696v421.391c0 32.348-17.826 62.522-46.522 78.609l-374.957 210.696c-14.174 8-30.087 12-46 12zM512 715.13c84.174 0 162-39.043 212.435-105.478l-97.565-56.522c-29.304 32.087-70.957 50.696-114.87 50.696-85.913 0-155.826-69.913-155.826-155.826s69.913-155.826 155.826-155.826c43.913 0 85.565 18.609 114.87 50.696l97.565-56.522c-50.435-66.435-128.261-105.478-212.435-105.478-147.304 0-267.13 119.826-267.13 267.13s119.826 267.13 267.13 267.13zM734.609 559.304h44.522v-44.522h44.522v44.522h44.522v-44.522h44.522v-44.522h-44.522v-44.522h44.522v-44.522h-44.522v-44.522h-44.522v44.522h-44.522v-44.522h-44.522v44.522h-44.522v44.522h44.522v44.522h-44.522v44.522h44.522zM779.13 470.261v-44.522h44.522v44.522z" />
<glyph unicode="&#xe902;" glyph-name="java" d="M577.291 960.084c56.329-130.341-201.953-210.834-225.957-319.412-22.004-99.776 153.465-215.715 153.625-215.715-26.644 41.287-46.248 75.292-72.972 139.543-45.207 108.658 275.325 206.994 145.304 395.585zM748.839 779.574c0 0-226.597-14.562-238.119-159.386-5.121-64.491 59.61-98.416 61.45-145.304 1.52-38.326-38.406-70.412-38.406-70.412s72.652 13.842 95.376 72.332c25.204 64.891-49.128 108.738-41.607 160.666 7.201 49.688 161.306 142.103 161.306 142.103zM392.941 444.799c0 0-207.394 2.96-207.394-55.689 0-61.29 271.484-65.851 465.356-28.165 0 0 51.528 35.446 65.291 48.648-127.061-25.924-416.708-28.805-416.708-6.401 0 20.643 93.455 41.607 93.455 41.607zM791.726 444.799c-20.323-1.6-42.247-9.442-62.090-23.684 46.728 10.082 86.414-18.883 86.414-51.848 0-74.252-107.538-144.024-107.538-144.024s166.427 18.883 166.427 140.823c0 55.369-38.486 82.253-83.214 78.733zM343.012 330.861c-31.845 0-79.373-24.964-79.373-48.648 0-47.608 239.399-84.254 416.708-14.722l-61.45 37.766c-120.18-38.486-341.496-25.924-275.885 25.604zM372.457 223.963c-43.607 0-72.332-26.324-72.332-46.088 0-61.13 260.443-67.291 363.579-5.121l-65.291 41.607c-77.053-32.565-270.444-37.526-225.957 9.602zM227.153 168.914c-71.052 1.44-117.139-30.485-117.139-56.969 0-140.823 727.159-134.342 727.159 9.602 0 23.924-27.605 35.526-37.766 40.967 59.45-137.622-595.297-126.661-595.297-45.447 0 18.483 48.168 36.166 92.815 27.524l-37.766 21.764c-11.122 1.68-21.844 2.32-32.005 2.56zM913.986 74.179c-110.578-104.817-390.784-142.823-672.75-78.093 281.886-115.379 671.39-50.648 672.75 78.093z" />
<glyph unicode="&#xe903;" glyph-name="css3" d="M53.895 960l80.842-916.211 377.263-107.789 377.263 107.789 80.842 916.211zM291.053 367.158h107.789l2.632-67.368 110.526-37.684 110.526 37.684 8 121.263h-237.053l-5.474 107.789h248l8 107.789h-371.789l-8.105 107.789h493.158l-13.474-215.579-18.947-309.895-212.842-70.105-212.842 70.105z" />
<glyph unicode="&#xe904;" glyph-name="html5" d="M963.304 952.783c-4.174 4.609-10.174 7.217-16.435 7.217h-869.74c-6.261 0-12.261-2.609-16.435-7.217-4.261-4.609-6.348-10.783-5.739-17.043l78.348-877.653c0.783-9.217 7.217-16.87 16.087-19.478l356.435-101.739c1.913-0.609 4-0.87 6.087-0.87s4.087 0.261 6.087 0.87l356.696 101.739c8.87 2.609 15.217 10.261 16.087 19.478l78.261 877.653c0.609 6.261-1.478 12.435-5.739 17.043zM775.739 650.174h-418.783l10-113.304h398.696l-29.913-334.87-223.913-67.652-2.174 0.696-221.304 67.043-12.087 136.435h108.435l4.696-52.957 123.739-25.913 121.478 25.913 12.957 143.304h-379.391l-29.478 329.565h546.697z" />
<glyph unicode="&#xe905;" glyph-name="sass" d="M881.24 390.617c-35.778-0.184-66.782-8.786-92.77-21.585-9.503 18.963-19.127 35.655-20.745 48.065-1.884 14.478-4.076 23.121-1.802 40.385s12.268 41.695 12.104 43.518c-0.143 1.823-2.232 10.609-22.875 10.772-20.643 0.143-38.297-3.973-40.385-9.421s-6.062-17.714-8.52-30.514c-3.625-18.718-41.204-85.481-62.564-120.397-6.984 13.639-12.922 25.64-14.151 35.143-1.884 14.478-4.076 23.121-1.802 40.385s12.268 41.695 12.104 43.518c-0.143 1.823-2.232 10.609-22.875 10.772-20.643 0.143-38.297-3.973-40.385-9.421s-4.301-18.185-8.52-30.514c-4.239-12.329-54.209-123.674-67.294-152.529-6.676-14.704-12.472-26.521-16.567-34.59-0.020 0.020-0.020 0.041-0.020 0.041s-0.246-0.532-0.696-1.454c-3.502-6.861-5.591-10.67-5.591-10.67s0.020-0.061 0.061-0.143c-2.785-5.038-5.755-9.728-7.229-9.728-1.024 0-3.092 13.434 0.451 31.845 7.434 38.623 25.292 98.873 25.128 100.942-0.082 1.065 3.318 11.551-11.674 17.059-14.56 5.325-19.762-3.564-21.093-3.584-1.29-0.020-2.253-3.133-2.253-3.133s16.24 67.745-30.965 67.745c-29.49 0-70.366-32.275-90.518-61.52-12.698-6.922-39.893-21.769-68.748-37.621-11.080-6.083-22.384-12.308-33.115-18.226-0.737 0.799-1.454 1.618-2.212 2.417-57.219 61.049-162.974 104.219-158.489 186.279 1.638 29.838 12.001 108.397 203.236 203.686 156.646 78.067 282.060 56.584 303.727 8.97 30.965-68.011-67.028-194.429-229.695-212.656-61.991-6.943-94.614 17.079-102.744 26.029-8.54 9.421-9.81 9.851-13.004 8.069-5.202-2.888-1.905-11.203 0-16.158 4.854-12.636 24.78-35.061 58.776-46.201 29.9-9.81 102.662-15.195 190.682 18.841 98.566 38.133 175.527 144.194 152.939 232.849-22.998 90.169-172.496 119.803-313.987 69.547-84.211-29.92-175.363-76.879-240.918-138.174-77.944-72.906-90.354-136.351-85.235-162.851 18.206-94.204 148.023-155.54 200.020-201.003-2.56-1.413-4.977-2.744-7.168-3.953-26.070-12.901-125.025-64.693-149.785-119.414-28.077-62.073 4.465-106.615 26.029-112.616 66.762-18.574 135.286 14.847 172.107 69.772 36.822 54.905 32.316 126.398 15.42 159.042-0.205 0.41-0.451 0.799-0.655 1.208 6.738 3.994 13.598 8.028 20.397 12.022 13.27 7.782 26.295 15.052 37.6 21.216-6.328-17.325-10.957-38.092-13.372-68.093-2.826-35.245 11.612-80.791 30.514-98.71 8.315-7.885 18.329-8.069 24.677-8.069 21.995 0 32.030 18.288 43.067 39.934 13.557 26.541 25.579 57.424 25.579 57.424s-15.093-83.453 26.029-83.453c14.97 0 30.043 19.435 36.761 29.326 0.020-0.102 0.020-0.164 0.020-0.164s0.389 0.635 1.147 1.946c1.556 2.376 2.437 3.891 2.437 3.891s0.041 0.164 0.082 0.43c6.021 10.445 19.373 34.283 39.402 73.602 25.865 50.788 50.686 114.397 50.686 114.397s2.314-15.564 9.871-41.265c4.444-15.134 13.905-31.866 21.36-47.901-6.001-8.335-9.687-13.106-9.687-13.106s0.041-0.082 0.102-0.246c-4.792-6.369-10.179-13.229-15.81-19.947-20.418-24.329-44.747-52.099-48.003-60.127-3.83-9.441-2.929-16.403 4.485-21.974 5.407-4.076 15.052-4.71 25.128-4.035 18.349 1.229 31.272 5.796 37.641 8.561 9.933 3.502 21.503 9.032 32.357 17.018 20.028 14.724 32.112 35.798 30.965 63.711-0.635 15.379-5.55 30.617-11.756 45.013 1.823 2.621 3.645 5.243 5.468 7.926 31.579 46.18 56.072 96.907 56.072 96.907s2.314-15.564 9.871-41.265c3.83-13.024 11.387-27.217 18.165-41.142-29.695-24.124-48.106-52.161-54.516-70.551-11.817-34.016-2.56-49.437 14.806-52.939 7.864-1.597 18.984 2.007 27.34 5.55 10.404 3.441 22.896 9.196 34.569 17.776 20.028 14.724 39.299 35.347 38.133 63.261-0.532 12.698-3.973 25.312-8.643 37.436 25.169 10.486 57.772 16.322 99.283 11.469 89.065-10.404 106.533-66.004 103.195-89.269-3.338-23.285-22.015-36.064-28.261-39.934s-8.151-5.202-7.619-8.069c0.758-4.178 3.645-4.014 8.97-3.113 7.332 1.229 46.754 18.923 48.454 61.889 2.13 54.434-50.133 114.336-142.699 113.844zM194.818 159.202c-29.49-32.173-70.714-44.337-88.389-34.098-19.086 11.059-11.53 58.448 24.677 92.586 22.056 20.807 50.543 39.975 69.445 51.792 4.301 2.58 10.609 6.39 18.288 10.998 1.27 0.717 1.987 1.126 1.987 1.126l-0.020 0.041c1.475 0.881 3.011 1.802 4.567 2.744 13.168-48.618 0.41-91.419-30.555-125.189zM409.706 305.301c-10.281-25.046-31.784-89.126-44.87-85.685-11.244 2.949-18.083 51.669-2.253 99.59 7.967 24.124 24.985 52.959 34.999 64.161 16.096 18.001 33.832 23.899 38.133 16.588 5.509-9.298-19.557-78.947-26.009-94.655zM587.261 220.579c-4.362-2.273-8.356-3.707-10.199-2.601-1.372 0.819 1.802 3.809 1.802 3.809s22.199 23.899 30.965 34.774c5.079 6.328 10.998 13.843 17.407 22.24 0.061-0.84 0.082-1.679 0.082-2.499-0.082-28.63-27.729-47.942-40.057-55.724zM724.042 251.769c-3.256 2.314-2.703 9.789 7.967 33.054 4.198 9.134 13.762 24.534 30.412 39.238 1.925-6.042 3.113-11.837 3.072-17.243-0.225-36.023-25.927-49.478-41.45-55.048z" />
<glyph unicode="&#xe906;" glyph-name="iphone" horiz-adv-x="724" d="M178.501 963.882c-16.44-3.473-33.111-17.134-41.215-33.574l-4.515-9.262-0.347-465.752-0.232-465.752 2.431-7.178c5.094-15.282 17.829-29.29 33.111-36.584l9.030-4.284h405.435l9.841 4.862c18.524 9.146 31.837 26.512 34.5 44.92 0.81 5.441 1.158 156.524 0.926 467.141l-0.347 459.037-2.547 6.599c-7.757 20.376-26.396 36.584-45.962 40.173-10.304 1.852-391.426 1.621-400.109-0.347zM607.322 844.405c1.737-0.695 1.852-36.816 1.852-398.836v-398.141h-225.177c-199.36 0-225.177 0.232-225.177 1.737 0 0.926-0.463 1.737-1.158 1.737-0.81 0-1.158 133.138-1.158 397.099v397.099h224.483c123.529 0 225.293-0.347 226.335-0.695zM158.125 809.21c0-19.45 0.232-27.322 0.347-17.597 0.232 9.609 0.232 25.586 0 35.311-0.116 9.609-0.347 1.737-0.347-17.713z" />
<glyph unicode="&#xe907;" glyph-name="database" d="M557.859 378.16c-15.307-0.475-30.614-0.739-45.85-0.739-15.289 0-30.649 0.246-45.991 0.739-129.159 3.536-232.085 21.782-306.192 47.803-34.837 11.753-64.659 25.582-87.689 41.399v-165.385c50.073-52.272 218.063-100.48 439.855-100.48s389.782 48.208 439.855 100.48v165.385c-23.189-15.923-53.275-29.857-88.411-41.645-74.072-25.899-176.787-44.038-305.576-47.557zM72.136 698.040v-165.385c46.413-48.454 194.117-93.425 392.104-99.724 2.023-0.070 4.099-0.088 6.14-0.141 5.736-0.158 11.454-0.317 17.278-0.405 8.041-0.141 16.151-0.211 24.333-0.211s16.292 0.070 24.333 0.194c5.806 0.088 11.542 0.246 17.278 0.405 2.041 0.053 4.117 0.088 6.14 0.141 197.988 6.316 345.691 51.287 392.104 99.724v165.403c-85.631-58.817-266.658-89.924-439.855-89.924s-354.206 31.107-439.855 89.924zM949.471 809.71c-19.741 75.673-171.543 150.29-437.48 150.29-265.268 0-416.912-74.248-437.269-149.727-1.496-2.586-2.586-5.419-2.586-8.621v-40.572c49.915-52.096 216.708-100.181 439.855-100.181s389.958 48.085 439.855 100.181v40.572c0 2.956-0.985 5.613-2.375 8.058zM72.136 238.638v-144.29c0-2.85 0.757-5.542 2.059-7.935 20.779-86.124 206.679-150.413 437.796-150.413 230.59 0 416.191 64.025 437.656 149.832 1.408 2.534 2.199 5.437 2.199 8.516v144.255c-72.752-51.217-222.655-91.472-439.855-91.472-217.218 0-367.121 40.291-439.855 91.507z" />
<glyph unicode="&#xe908;" glyph-name="elasticsearch" d="M830.933 448c0 81.307-65.893 147.2-147.2 147.2h-615.347c-14.597-46.469-22.52-95.904-22.52-147.2s7.923-100.731 22.52-147.2h615.347c81.307 0 147.2 65.893 147.2 147.2zM536.533-42.667c160.059 0 301.883 76.861 391.408 195.48-51.989 46.144-120.192 74.387-195.141 74.387h-634.013c80.859-159.957 246.293-269.867 437.747-269.867zM536.533 938.667c-191.483 0-356.888-109.909-437.747-269.867h634.013c74.848 0 142.979 28.163 194.939 74.192-89.475 118.691-231.125 195.675-391.205 195.675zM464.723 668.8c-37.117 82.605-94.331 154.264-165.528 208.555-86.091-47.696-156.256-120.531-200.755-208.555h366.283zM299.195 18.645c71.197 54.291 128.381 125.957 165.528 208.555h-366.283c44.507-88.024 114.672-160.867 200.755-208.555zM68.632 595.2c-14.619-46.491-22.765-95.853-22.765-147.2s8.147-100.709 22.765-147.2h422.811c13.269 46.808 20.557 96.149 20.557 147.2s-7.288 100.392-20.536 147.2h-422.832z" />
<glyph unicode="&#xe909;" glyph-name="azure" d="M991.589 99.208l-363.681 635.412-141.893-285.748 249.801-289.498-463.61-52.646zM274.211 574.829l-241.8-407.956 205.831 20.687 361.675 659.85z" />
<glyph unicode="&#xe90a;" glyph-name="aws" d="M210.688 671.688c-43.52 0-87.702-16.97-95.063-26.25-1.92-3.84-6.372-34.875 4.188-34.875 3.52 0 5.135-0.612 15.375 4.188 38.4 15.040 62.73 14.687 66.25 14.687 43.2 4.16 68.152-25.295 64.312-63.375v-22.375c-36.48 8.64-57.322 8.938-67.562 8.938-53.12 3.2-102.188-24.807-102.188-86.375 0-67.52 60.265-81.96 83.625-81 34.88-0.32 68.17 15.363 90.25 42.563 17.6-39.36 28.805-36.75 29.125-36.75 3.2 0 5.752 1.275 8.312 2.875l18.25 12.813c3.2 1.92 5.742 5.097 6.062 8.937-0.32 9.28-16.967 23.68-15.687 56v99.813c1.92 27.52-7.003 54.45-25.562 75.25-22.080 18.56-51.208 27.498-79.688 24.938zM830.625 671.688c-64 0-100.772-39.985-99.812-80.625 0-55.68 56.287-73.33 62.687-75.25 54.080-16.96 61.46-17.575 76.5-30.375 12.8-13.12 11.193-38.738-7.687-49.938-5.44-3.2-28.825-17.255-81.625-6.375-17.6 3.52-26.85 7.67-41.25 13.75-3.84 1.28-12.813 3.527-12.813-8.313v-15.687c0-7.36 4.468-14.050 11.188-17.25 33.6-16.96 73.922-17.625 82.562-17.625 1.28 0 74.86-0.039 99.5 49.625 5.088 10.24 18.265 47.625-6.375 79.625-20.48 24-38.082 26.563-90.562 42.563-4.48 1.28-43.195 11.238-42.875 38.437-1.92 34.88 45.455 36.765 55.375 36.125 40 0.64 59.807-14.353 70.687-15.313 4.8 0 7.062 2.85 7.062 9.25v14.75c0.32 3.52-0.955 6.995-2.875 9.875-12.8 16.64-61.768 22.75-79.688 22.75zM344.875 663.688c-3.52-0.64-6.078-4.168-5.438-7.688 0.64-4.16 1.275-8.34 2.875-12.5l71.687-236.438c1.6-7.68 6.675-16.030 17.875-14.75h26.25c16-1.6 18.242 13.775 18.562 15.375l47.063 197.125 47.687-197.438c0.32-1.6 2.57-16.975 18.25-15.375h26.562c11.52-1.28 16.963 7.070 18.563 14.75 80.64 259.52 75.172 241.877 75.812 244.437 1.28 13.44-6.407 12.507-7.687 12.188h-28.5c-14.4 1.6-17.235-11.55-17.875-14.75l-53.125-205.125-48 205.125c-2.24 15.68-15.050 15.070-18.25 14.75h-24.625c-14.080 1.28-17.602-9.95-18.562-14.75l-47.687-202.25-51.188 202.25c-1.28 6.4-5.458 16.343-17.938 15.063h-32.312zM208.75 515.5c23.040-0.32 42.928-3.8 56.688-7 0-16 0.582-24.975-2.938-39.375-4.48-15.36-24.28-43.235-71-43.875-26.88-1.28-44.475 19.875-42.875 43.875-1.6 38.4 38.045 47.975 60.125 46.375zM929.313 319.938c-29.868-0.416-65.123-7.107-91.875-25.875-8.256-5.728-6.809-13.681 2.375-12.625 30.080 3.616 97.032 11.734 109-3.562 12-15.296-13.27-78.401-24.438-106.625-3.456-8.416 3.85-11.9 11.562-5.5 50.048 41.92 63.053 129.797 52.813 142.437-5.136 6.32-29.57 12.166-59.438 11.75zM38.938 287.938c-6.978-0.96-9.984-9.805-2.688-16.813 125.344-117.568 290.971-175.125 474.875-175.125 131.168 0 283.442 42.798 388.562 123.438 17.376 13.408 2.574 33.498-15.25 25.562-117.856-52-245.863-77.062-362.375-77.062-172.672 0-339.83 36.050-475.062 117.938-2.96 1.792-5.736 2.382-8.062 2.062z" />
<glyph unicode="&#xe90b;" glyph-name="react" d="M836.4 605.6c-10.8 3.6-21.6 7-32.4 10.2 1.8 7.4 3.4 14.8 5 22.2 24.6 119.2 8.4 215-46.2 246.6-52.6 30.2-138.4-1.2-225.2-76.8-8.6-7.4-17-15.2-25-23-5.4 5.2-11 10.4-16.6 15.4-91 80.8-182.2 114.8-236.8 83-52.4-30.4-68-120.6-46-233.4 2.2-11.2 4.6-22.2 7.4-33.4-12.8-3.6-25.4-7.6-37.2-11.8-106.8-37-183.4-95.4-183.4-155.8 0-62.4 81.6-125 192.6-163 9-3 18-6 27.2-8.6-3-12-5.6-23.8-8-36-21-111-4.6-199 47.8-229.2 54-31.2 144.8 0.8 233.2 78.2 7 6.2 14 12.6 21 19.4 8.8-8.6 18-16.8 27.2-24.8 85.6-73.6 170.2-103.4 222.4-73.2 54 31.2 71.6 125.8 48.8 241-1.8 8.8-3.8 17.8-6 27 6.4 1.8 12.6 3.8 18.8 5.8 115.4 38.2 199 100 199 163.4 0 60.6-78.8 119.4-187.6 156.8zM565.8 775.4c74.4 64.8 143.8 90.2 175.4 72 33.8-19.4 46.8-97.8 25.6-200.8-1.4-6.8-2.8-13.4-4.6-20-44.4 10-89.4 17.2-134.6 21.2-26 37.2-54.4 72.8-85.2 106.2 7.8 7.4 15.4 14.4 23.4 21.4zM305.8 397.2c9.2-17.6 18.6-35 28.6-52.2 10.2-17.4 20.6-34.8 31.6-51.8-31.2 3.4-62.2 8.4-92.8 15 8.8 28.8 19.8 58.6 32.6 89zM305.8 498.4c-12.6 29.8-23.2 59-32 87.2 28.8 6.4 59.4 11.6 91.2 15.6-10.6-16.6-21-33.6-30.8-50.8-9.8-17-19.4-34.4-28.4-52zM328.6 447.8c13.2 27.6 27.6 54.6 42.8 81.2s31.6 52.4 48.8 77.8c30 2.2 60.6 3.4 91.8 3.4s62-1.2 91.8-3.4c17-25.2 33.2-51 48.6-77.4s29.8-53.4 43.4-80.8c-13.4-27.6-27.8-54.8-43.2-81.6-15.2-26.6-31.4-52.4-48.4-78-29.8-2.2-60.8-3.2-92.2-3.2s-61.8 1-91.2 2.8c-17.4 25.4-33.8 51.4-49.2 78s-29.6 53.6-43 81.2zM689.8 345.4c10.2 17.6 19.8 35.4 29.2 53.4 12.8-29 24-58.4 33.8-88.6-31-7-62.4-12.4-94-16 10.8 16.8 21 34 31 51.2zM718.6 498.4c-9.4 17.6-19 35.2-29 52.4-9.8 17-20 33.8-30.6 50.4 32.2-4 63-9.4 91.8-16-9.2-29.6-20-58.4-32.2-86.8zM512.4 723.4c21-22.8 40.8-46.8 59.2-71.6-39.6 1.8-79.4 1.8-119 0 19.6 25.8 39.8 49.8 59.8 71.6zM280.4 846c33.6 19.6 108.2-8.4 186.8-78 5-4.4 10-9.2 15.2-14-31-33.4-59.6-69-85.8-106.2-45.2-4-90-11-134.4-20.8-2.6 10.2-4.8 20.6-7 31-18.8 96.8-6.4 169.8 25.2 188zM231.4 318.8c-8.4 2.4-16.6 5-24.8 7.8-42.6 13.4-91 34.6-126 62.4-20.2 14-33.8 35.6-37.6 59.8 0 36.6 63.2 83.4 154.4 115.2 11.4 4 23 7.6 34.6 11 13.6-43.4 30-86 49-127.2-19.2-41.8-35.8-85-49.6-129zM464.6 122.8c-33-30.2-71.2-54.2-112.8-70.6-22.2-10.6-47.8-11.6-70.6-2.6-31.8 18.4-45 89-27 184 2.2 11.2 4.6 22.4 7.4 33.4 44.8-9.6 90-16.2 135.8-19.6 26.4-37.4 55.4-73.2 86.4-106.8-6.4-6.2-12.8-12.2-19.2-17.8zM513.6 171.4c-20.4 22-40.8 46.4-60.6 72.6 19.2-0.8 39-1.2 59-1.2 20.6 0 40.8 0.4 60.8 1.4-18.4-25.4-38.2-49.6-59.2-72.8zM775 111.4c-1.8-24.4-13.8-47.2-33-62.6-31.8-18.4-99.6 5.6-172.8 68.4-8.4 7.2-16.8 15-25.4 23 30.6 33.8 58.8 69.6 84.4 107.2 45.8 3.8 91.4 10.8 136.4 21 2-8.2 3.8-16.4 5.4-24.4 9.8-43.2 11.4-88.2 5-132.6zM811.4 326.4c-5.6-1.8-11.2-3.6-17-5.2-14 43.6-31.2 86.2-51 127.6 19.2 40.8 35.4 82.8 49 125.8 10.4-3 20.4-6.2 30-9.4 93.2-32 158.6-79.6 158.6-116 0-39.2-69.8-89.8-169.6-122.8zM512 539.6c50.6 0 91.6-41 91.6-91.6s-41-91.6-91.6-91.6c-50.6 0-91.6 41-91.6 91.6s41 91.6 91.6 91.6z" />
<glyph unicode="&#xe90c;" glyph-name="php" d="M658.492 552.638l-42.441-230.204h55.374l11.030 62.783h34.447c72.117 0 111.356 16.7 126.025 78.604 12.619 53.177-19.63 88.817-72.827 88.817h-111.607zM726.046 427.073h-35.786l15.801 83.709h43.131c35.744 0 43.257-16.115 41.394-34.048-4.792-46.166-33.569-49.661-64.54-49.661zM219.014 552.638l-42.441-230.204h55.374l11.030 62.783h34.447c72.117 0 111.356 16.7 126.025 78.604 12.619 53.177-19.63 88.817-72.827 88.817h-111.607zM286.567 427.073h-35.786l15.801 83.709h43.131c35.744 0 43.257-16.115 41.394-34.048-4.792-46.166-33.569-49.661-64.54-49.661zM609.983 537.423c-11.823 10.842-32.667 15.214-63.745 15.214h-48.95l17.453 83.709h-54.915l-52.466-251.13h54.935l26.495 125.565h43.905c14 0 23.25-2.343 27.561-6.969 4.289-4.666 5.231-13.456 2.742-26.18l-20.048-92.416h55.794l21.723 99.992c4.666 23.963 1.13 41.542-10.484 52.215z" />
<glyph unicode="&#xe90d;" glyph-name="nodejs" d="M923.425 710.772l-372.385 215.094c-23.652 13.518-54.802 13.518-78.454 0l-372.002-214.72c-24.026-13.892-39.040-40.162-39.040-67.946v-389.652c0-28.158 15.014-54.054 39.040-67.946l97.6-56.307c47.295-23.278 64.188-23.278 85.587-23.278 70.199 0 110.361 42.415 110.361 115.998v402.039c0 6.002-4.88 10.882-10.882 10.882h-46.921c-6.385 0-10.882-4.88-10.882-10.882v-401.665c0-33.038-34.16-65.319-89.345-37.918l-102.106 58.934c-3.758 1.879-6.002 6.002-6.002 10.134v389.278c0 4.506 2.253 8.255 6.002 10.508l372.002 214.72c3.375 2.253 7.881 2.253 11.639 0l372.002-214.72c3.758-2.253 6.002-6.002 6.002-10.134v-389.652c0-4.132-2.253-8.255-5.628-10.134l-372.385-215.094c-3.375-1.879-8.255-1.879-11.639 0l-95.721 56.681c-2.627 1.879-6.385 2.253-9.012 0.748-26.653-15.014-31.533-16.893-56.307-25.522-6.002-1.879-15.388-5.628 3.375-16.145l124.253-73.574c12.013-6.759 25.522-10.508 39.040-10.508 13.892 0 27.401 3.758 39.414 10.508l372.385 215.094c24.026 13.892 39.040 39.788 39.040 67.946v389.278c0 28.158-15.014 54.054-39.040 67.946zM812.307 350.587c0-81.081-67.572-127.628-185.44-127.628-162.919 0-197.079 74.705-197.079 137.388 0 5.628 4.506 10.508 10.508 10.508h48.426c5.254 0 9.76-3.758 10.508-9.012 7.133-48.8 28.906-73.574 127.628-73.574 78.454 0 111.866 17.641 111.866 58.934 0 24.026-9.386 42.041-131.386 54.054-102.106 10.134-165.172 32.655-165.172 114.119 0 75.079 63.44 120.121 169.678 120.121 119.373 0 178.307-41.667 185.814-130.255 0.374-3.375-0.748-6.385-2.627-8.255-2.253-2.253-4.88-3.758-7.881-3.758h-48.426c-5.254 0-9.386 3.758-10.508 8.638-11.639 51.427-40.162 67.946-116.372 67.946-85.587 0-95.721-29.654-95.721-52.175 0-27.027 11.639-34.908 127.628-49.922 114.119-15.388 168.547-36.787 168.547-117.12z" />
<glyph unicode="&#xe90e;" glyph-name="angularjs" d="M512-52.567l-363.698 202.030-79.556 596.804 443.246 161.167 443.246-161.167-79.556-596.763-363.698-202.071zM218.763 197.491l293.237-162.917 293.237 162.917 66.417 498.127-359.655 130.781-359.655-130.813 66.417-498.085zM512 752.667l-228.496-533.164h76.163l49.129 114.248h206.409l49.129-114.248h76.163l-228.496 533.164zM441.548 409.915l43.032 100.542 26.656 66.648 0.764 2.284 0.764-2.284 26.656-66.648 43.032-100.542h-140.904z" />
<glyph unicode="&#xe90f;" glyph-name="docker" d="M596.608 487.339h90.411c0 0 0 0 0 0 4.368 0 7.912 3.529 7.936 7.891v80.514c0 4.383-3.553 7.936-7.936 7.936v0h-90.411c-4.359 0-7.893-3.534-7.893-7.893v0-80.555c0-4.352 3.541-7.893 7.893-7.893zM470.571 719.019h90.368c4.383 0 7.936 3.553 7.936 7.936v0 80.555c-0.024 4.365-3.568 7.893-7.936 7.893 0 0 0 0 0 0h-90.368c-4.359 0-7.893-3.534-7.893-7.893v0-80.555c0-4.352 3.499-7.893 7.893-7.893zM470.571 603.179h90.368c4.373 0.024 7.912 3.563 7.936 7.934v80.514c-0.024 4.365-3.568 7.893-7.936 7.893 0 0 0 0 0 0h-90.368c-4.359 0-7.893-3.534-7.893-7.893v0-80.512c0-4.352 3.499-7.893 7.893-7.936zM345.557 603.179h90.453c4.346 0.048 7.851 3.583 7.851 7.936 0 0 0 0 0 0v0 80.512c0 4.359-3.534 7.893-7.893 7.893h-90.368c-4.359 0-7.893-3.534-7.893-7.893v0-80.512c0-4.352 3.541-7.893 7.893-7.936zM219.136 603.179h90.411c4.365 0.024 7.893 3.568 7.893 7.936 0 0 0 0 0 0v0 80.512c0 4.359-3.534 7.893-7.893 7.893h-90.411c0 0 0 0 0 0-4.368 0-7.912-3.529-7.936-7.891v-80.514c0-4.352 3.584-7.893 7.936-7.936zM470.571 487.339h90.368c0 0 0 0 0 0 4.368 0 7.912 3.529 7.936 7.891v80.514c0 4.383-3.553 7.936-7.936 7.936v0h-90.368c-4.359 0-7.893-3.534-7.893-7.893v0-80.555c0-4.352 3.499-7.893 7.893-7.893zM345.557 487.339h90.453c4.341 0.024 7.851 3.549 7.851 7.893 0 0 0 0 0 0v0 80.512c0 0.013 0 0.028 0 0.043 0 4.344-3.51 7.869-7.848 7.893h-90.455c-4.341-0.024-7.851-3.549-7.851-7.893 0 0 0 0 0 0v0-80.555c0-4.352 3.541-7.893 7.893-7.893zM219.136 487.339h90.411c4.359 0 7.893 3.534 7.893 7.893v0 80.512c0 0.013 0 0.028 0 0.043 0 4.344-3.51 7.869-7.848 7.893h-90.455c-4.383 0-7.936-3.553-7.936-7.936v0-80.512c0-4.352 3.584-7.893 7.936-7.893zM94.549 487.339h90.453c4.341 0.024 7.851 3.549 7.851 7.893 0 0 0 0 0 0v0 80.512c0 0.013 0 0.028 0 0.043 0 4.344-3.51 7.869-7.848 7.893h-90.455c-4.341-0.024-7.851-3.549-7.851-7.893 0 0 0 0 0 0v0-80.555c0-4.352 3.499-7.893 7.893-7.893zM1013.888 538.027c-2.773 2.176-28.672 21.76-83.371 21.76-14.421-0.043-28.843-1.28-43.093-3.712-10.581 72.533-70.528 107.947-73.216 109.483l-14.677 8.491-9.643-13.952c-12.117-18.688-20.907-39.339-26.112-61.013-9.813-41.387-3.84-80.299 17.195-113.536-25.387-14.165-66.133-17.621-74.411-17.92h-674.517c-17.633-0.024-31.927-14.288-32-31.908v-0.007c-0.028-1.93-0.043-4.208-0.043-6.49 0-59.875 10.841-117.218 30.668-170.172l-1.1 3.35c23.253-60.928 57.813-105.813 102.827-133.291 50.347-30.848 132.267-48.512 225.067-48.512 41.941-0.128 83.755 3.669 125.013 11.349 61.36 11.497 116.067 32.103 165.654 60.61l-2.539-1.346c41.813 24.192 79.36 54.955 111.36 91.136 53.419 60.501 85.248 127.872 108.928 187.733h9.429c58.539 0 94.507 23.424 114.347 43.051 13.184 12.501 23.467 27.733 30.165 44.629l4.181 12.288z" />
<glyph unicode="&#xe910;" glyph-name="kubernetes" d="M435.371 347.733l0.299-0.427-42.624-102.955c-40.515 26.217-71.399 64.293-88.038 109.277l-0.495 1.528 109.995 18.645 0.171-0.213c1.020 0.197 2.194 0.309 3.394 0.309 10.368 0 18.773-8.405 18.773-18.773 0-2.671-0.558-5.212-1.564-7.513l0.047 0.121zM399.829 438.571c8.027 2.25 13.816 9.503 13.816 18.107 0 5.635-2.482 10.689-6.413 14.13l-0.022 0.019 0.085 0.469-83.669 74.837c-20.381-32.68-32.465-72.361-32.465-114.864 0-8.461 0.479-16.81 1.411-25.021l-0.093 1.005 107.264 30.933 0.085 0.384zM448.683 523.051c3.061-2.255 6.906-3.609 11.067-3.609 10.092 0 18.324 7.963 18.756 17.949l0.001 0.039 0.427 0.213 6.4 111.787c-50.435-6.054-94.773-28.406-128.456-61.554l0.029 0.028 91.605-64.981 0.171 0.085zM481.109 405.717l30.848-14.891 30.805 14.805 7.68 33.28-21.333 26.581h-34.304l-21.333-26.581 7.637-33.237zM545.109 537.771c0.439-10.020 8.668-17.977 18.756-17.977 4.18 0 8.041 1.366 11.161 3.677l-0.051-0.036 0.341-0.128 91.051 64.555c-33.536 32.862-77.543 55.152-126.559 61.411l-1.099 0.115 6.315-111.573 0.085-0.043zM1009.152 283.051l-246.315-306.389c-12.616-15.513-31.702-25.344-53.085-25.344-0.057 0-0.115 0-0.172 0l-395.127-0.128c-0.015 0-0.034 0-0.052 0-21.421 0-40.538 9.866-53.054 25.302l-0.1 0.127-246.443 306.347c-9.212 11.446-14.785 26.159-14.785 42.174 0 5.318 0.615 10.493 1.777 15.457l-0.090-0.457 87.893 382.080c4.608 20.053 18.133 36.864 36.821 45.781l355.925 170.112c8.642 4.226 18.806 6.698 29.547 6.698s20.904-2.471 29.953-6.876l-0.406 0.179 356.053-170.027c18.688-8.917 32.213-25.771 36.821-45.781l87.979-382.080c4.608-20.053-0.213-41.088-13.141-57.173zM868.821 370.816c-1.792 0.427-4.395 1.109-6.187 1.451-7.424 1.408-13.44 1.067-20.437 1.621-14.933 1.579-27.221 2.859-38.187 6.315-4.48 1.707-7.68 7.040-9.216 9.216l-8.576 2.517c1.641 11.289 2.577 24.323 2.577 37.575 0 21.96-2.572 43.32-7.432 63.793l0.374-1.87c-8.178 35.041-21.973 65.902-40.553 93.251l0.617-0.963c2.219 2.005 6.4 5.675 7.552 6.784 0.341 3.84 0.043 7.808 4.011 12.032 8.405 7.893 18.944 14.421 31.701 22.272 6.059 3.584 11.648 5.845 17.707 10.325 1.365 1.024 3.243 2.645 4.693 3.797 10.24 8.149 12.587 22.187 5.248 31.403s-21.589 10.069-31.787 1.92c-1.451-1.152-3.413-2.645-4.736-3.755-5.717-4.949-9.259-9.813-14.080-14.933-10.496-10.667-19.2-19.541-28.715-25.984-4.139-2.389-10.197-1.579-12.928-1.408l-8.107-5.76c-45.266 47.438-106.889 78.922-175.785 85.377l-1.111 0.084-0.512 9.515c-2.773 2.645-6.101 4.907-6.955 10.667-0.939 11.435 0.64 23.765 2.432 38.613 0.981 6.955 2.603 12.715 2.901 20.267 0.043 1.707-0.043 4.224-0.043 6.059 0 13.056-9.557 23.68-21.333 23.68-11.733 0-21.291-10.624-21.291-23.68l0.043-0.597c0-1.749-0.085-3.925 0-5.461 0.256-7.552 1.877-13.312 2.859-20.267 1.792-14.848 3.328-27.179 2.389-38.656-1.278-4.397-3.685-8.129-6.889-10.988l-0.023-0.020-0.512-9.003c-70.44-5.818-132.543-37.463-177.62-85.323l-0.129-0.138c-3.683 2.53-6.184 4.325-8.66 6.152l0.98-0.69c-3.84-0.512-7.68-1.707-12.672 1.237-9.515 6.4-18.219 15.275-28.715 25.941-4.821 5.12-8.32 9.984-14.037 14.891-1.28 1.109-3.285 2.645-4.736 3.755-4.037 3.293-9.177 5.376-14.793 5.63l-0.055 0.002c-0.325 0.018-0.706 0.029-1.088 0.029-6.391 0-12.101-2.922-15.864-7.502l-0.028-0.036c-7.339-9.216-4.992-23.296 5.248-31.445l0.299-0.213 4.437-3.541c6.059-4.48 11.605-6.784 17.664-10.325 12.757-7.893 23.296-14.421 31.701-22.272 3.243-3.499 3.84-9.643 4.267-12.288l6.827-6.101c-29.025-42.985-46.332-95.96-46.332-152.977 0-13.857 1.022-27.476 2.996-40.785l-0.183 1.506-8.875-2.56c-2.347-3.072-5.675-7.851-9.173-9.259-10.965-3.456-23.296-4.693-38.187-6.272-6.997-0.597-13.013-0.256-20.48-1.664-1.579-0.299-3.84-0.853-5.675-1.28l-0.171-0.085-0.299-0.085c-12.587-3.029-20.651-14.592-18.048-25.941 2.603-11.392 14.891-18.304 27.52-15.573l0.299 0.043 0.427 0.128 5.504 1.237c7.253 1.963 12.544 4.821 19.115 7.339 14.080 5.035 25.771 9.259 37.12 10.923 4.779 0.384 9.813-2.944 12.288-4.309l9.259 1.579c21.645-65.533 65.11-118.903 121.618-152.729l1.262-0.7-3.84-9.301c1.408-3.584 2.944-8.491 1.877-12.032-4.139-10.752-11.221-22.059-19.285-34.688-3.883-5.803-7.893-10.325-11.435-17.024-0.853-1.579-1.92-4.053-2.731-5.717-5.461-11.733-1.451-25.216 9.088-30.293 10.581-5.12 23.723 0.299 29.44 12.032v0.085c0.853 1.664 1.963 3.84 2.645 5.419 2.987 6.912 4.011 12.843 6.144 19.541 5.632 14.165 8.747 29.013 16.512 38.272 2.133 2.56 5.547 3.499 9.173 4.48l4.821 8.747c29.367-11.655 63.392-18.413 98.995-18.413 35.099 0 68.665 6.568 99.534 18.542l-1.878-0.641 4.523-8.192c3.669-1.195 7.68-1.792 10.923-6.613 5.803-9.899 9.771-21.632 14.592-35.84 2.133-6.656 3.157-12.587 6.187-19.499 0.683-1.579 1.835-3.84 2.645-5.504 5.675-11.776 18.859-17.152 29.44-12.032 10.539 5.035 14.549 18.56 9.088 30.293-0.853 1.664-1.92 4.096-2.773 5.717-3.541 6.656-7.552 11.136-11.435 16.981-8.107 12.629-14.763 23.083-18.901 33.835-1.707 5.547 0.299 8.96 1.621 12.544-0.768 0.939-2.517 6.144-3.541 8.619 57.958 34.778 101.473 88.561 122.327 152.578l0.553 1.961c2.731-0.427 7.509-1.28 9.088-1.621 3.2 2.133 6.144 4.864 11.947 4.437 11.349-1.664 23.040-5.888 37.12-10.923 6.571-2.56 11.819-5.461 19.115-7.381 1.536-0.427 3.755-0.811 5.547-1.195l0.384-0.128 0.299-0.043c12.672-2.731 24.917 4.181 27.52 15.573 2.56 11.349-5.461 22.912-18.048 25.941zM699.733 546.091l-83.2-74.496v-0.213c-3.974-3.461-6.472-8.53-6.472-14.182 0-8.618 5.807-15.88 13.721-18.086l0.132-0.031 0.128-0.427 107.776-31.061c0.672 6.482 1.056 14.005 1.056 21.618 0 17.662-2.064 34.842-5.965 51.312l0.301-1.506c-5.912 25.405-15.384 47.818-28.022 68.050l0.545-0.935zM528.512 318.891c-3.197 5.943-9.372 9.914-16.475 9.914-0.268 0-0.535-0.006-0.8-0.017l0.038 0.001c-6.865-0.264-12.758-4.176-15.823-9.842l-0.049-0.099h-0.085l-54.101-97.792c21.212-7.48 45.673-11.802 71.143-11.802 25.33 0 49.662 4.274 72.313 12.141l-1.547-0.468-54.187 97.963h-0.427zM609.067 374.059c-1.022 0.198-2.198 0.311-3.401 0.311-2.952 0-5.745-0.681-8.23-1.896l0.111 0.049c-6.368-3.094-10.679-9.513-10.679-16.939 0-2.7 0.57-5.267 1.596-7.586l-0.047 0.12-0.128-0.171 43.093-104.021c40.777 26.315 71.795 64.695 88.303 110.045l0.486 1.528-110.933 18.773-0.171-0.213z" />
<glyph unicode="&#xe911;" glyph-name="redis" d="M448 846.464l23.040-42.539-76.672-27.477 102.784-9.301 31.915-53.163 19.925 47.829 88.619 8.875-68.693 26.155 18.176 43.392-67.328-22.144zM742.613 757.845l-155.52-61.611 140.459-55.381 15.061 6.229 140.501 55.381zM294.187 744.533c-69.947 0-126.657-22.001-126.72-49.15v-0.002c0-27.169 56.734-49.195 126.72-49.195v0c69.986 0 126.72 22.025 126.72 49.195v0c-0.063 27.151-56.773 49.152-126.72 49.152v0zM1024 669.653s-383.275-182.528-443.52-211.328c-52.309-23.936-81.109-23.936-139.136-4.011-86.443 35.413-441.344 196.736-441.344 196.736v-44.288c0-10.24 14.165-21.291 41.216-34.133 54.485-26.155 355.84-156.885 403.2-179.456 47.445-22.613 81.067-23.040 141.355 8.405 60.245 31.488 343.424 166.613 397.909 194.987 27.904 14.592 40.32 25.685 40.32 35.84zM595.541 643.968l-237.568-36.395 165.717-68.693zM1024 506.155s-383.275-182.571-443.52-211.371c-52.309-23.893-81.109-23.893-139.136-3.968-86.443 35.413-441.344 196.693-441.344 196.693v-44.288c0-10.155 14.165-21.248 41.216-34.133 54.485-26.112 355.84-156.843 403.2-179.413 47.445-22.613 81.067-23.040 141.355 8.405 60.245 31.445 343.424 166.613 397.909 194.987 27.904 14.165 40.32 25.685 40.32 35.84zM1024 342.229l-443.52-211.371c-52.309-23.893-81.109-23.893-139.136-4.011-86.443 35.456-441.344 196.736-441.344 196.736v-44.288c0-10.197 14.165-21.291 41.216-34.133 54.485-26.155 355.84-156.843 403.2-179.456 47.445-22.613 81.067-23.040 141.355 8.448 60.245 31.445 343.424 166.571 397.909 194.944 27.904 14.635 40.32 26.155 40.32 35.883z" />
<glyph unicode="&#xe912;" glyph-name="vps" d="M966.963 396.083h46.797l-34.611 86.528h-519.066l-34.611-86.528h46.797l18.33 51.917h458.035l18.33-51.917zM425.472 396.083v-311.501h588.288v311.501h-588.288zM979.149 119.296h-519.066v103.731h519.066v-103.731zM979.149 257.638h-519.066v103.834h519.066v-103.834zM892.621 326.861h34.611v-34.611h-34.611v34.611zM892.621 188.518h34.611v-34.611h-34.611v34.611zM183.808 162.918v-9.114c-52.122 0.102-173.568 22.016-173.568 155.75 0 123.904 93.286 226.099 213.709 240.435 27.75 148.685 158.515 261.222 315.802 261.222 168.653 0 306.893-129.536 320.102-294.093h-34.816c-13.107 145.613-135.885 259.584-285.286 259.584-136.704 0-251.085-95.437-279.654-223.13-3.379-13.005-5.018-21.709-6.758-36.352 0 0 0 0 0 0-115.098 0-208.384-92.979-208.384-207.667s119.501-121.139 138.854-121.139c0 0 0 0 0.102 0l-0.102-25.498v-9.114h208.384v34.611h-208.384v-25.498zM529.306 741.888c-119.706-4.915-218.010-93.184-238.387-208.282h17.306c19.456 105.984 110.387 187.085 221.082 191.078 0 0 0 17.203 0 17.203z" />
<glyph unicode="&#xe914;" glyph-name="github" d="M512 960c-282.88 0-512-229.12-512-512 0-226.56 146.56-417.92 350.080-485.76 25.6-4.48 35.2 10.88 35.2 24.32 0 12.16-0.64 52.48-0.64 95.36-128.64-23.68-161.92 31.36-172.16 60.16-5.76 14.72-30.72 60.16-52.48 72.32-17.92 9.6-43.52 33.28-0.64 33.92 40.32 0.64 69.12-37.12 78.72-52.48 46.080-77.44 119.68-55.68 149.12-42.24 4.48 33.28 17.92 55.68 32.64 68.48-113.92 12.8-232.96 56.96-232.96 252.8 0 55.68 19.84 101.76 52.48 137.6-5.12 12.8-23.040 65.28 5.12 135.68 0 0 42.88 13.44 140.8-52.48 40.96 11.52 84.48 17.28 128 17.28s87.040-5.76 128-17.28c97.92 66.56 140.8 52.48 140.8 52.48 28.16-70.4 10.24-122.88 5.12-135.68 32.64-35.84 52.48-81.28 52.48-137.6 0-196.48-119.68-240-233.6-252.8 18.56-16 34.56-46.72 34.56-94.72 0-68.48-0.64-123.52-0.64-140.8 0-13.44 9.6-29.44 35.2-24.32 202.24 67.84 348.8 259.84 348.8 485.76 0 282.88-229.12 512-512 512z" />
<glyph unicode="&#xe915;" glyph-name="gitlab" horiz-adv-x="1111" d="M555.64-64.256l204.356 628.937h-408.716l204.356-628.937zM555.64-64.252l-204.36 628.937h-286.395l490.755-628.937zM64.885 564.685l-62.1-191.132c-1.313-3.905-2.071-8.402-2.071-13.075 0-14.019 6.818-26.445 17.319-34.143l0.118-0.083 537.488-390.508-490.759 628.937zM64.885 564.681h286.395l-123.076 378.807c-6.334 19.492-33.909 19.488-40.239 0l-123.080-378.807zM555.64-64.252l204.356 628.937h286.399l-490.759-628.937zM1046.395 564.685l62.1-191.132c1.313-3.904 2.070-8.4 2.070-13.073 0-14.020-6.82-26.448-17.323-34.146l-0.119-0.083-537.484-390.508 490.755 628.937zM1046.395 564.681h-286.399l123.080 378.807c6.334 19.492 33.909 19.488 40.239 0l123.080-378.807z" />
<glyph unicode="&#xe916;" glyph-name="storybook" horiz-adv-x="822" d="M608.831 837.611l4.902 115.821 98.522 6.15 4.244-117.914c0.212-5.894-6.035-9.81-11.248-7.046-0.408 0.215-0.793 0.469-1.156 0.754l-37.991 29.934-44.982-34.123c-4.696-3.57-11.495-0.716-12.237 5.136-0.055 0.427-0.074 0.857-0.055 1.287zM432.565 657.682c-18.024 0-48.375-5.447-48.375-46.305 0-100.785 259.887-95.338 259.887-298.726 0-114.402-92.953-177.598-211.515-177.598-122.357 0-229.283 49.502-217.207 221.129 4.744 20.153 160.296 15.363 160.296 0-1.897-70.82 14.23-91.653 55.014-91.653 31.301 0 45.531 17.251 45.531 46.308 0 103.507-256.096 107.141-256.096 296.909 0 108.955 74.932 181.591 208.668 181.591 133.74 0 206.774-71.526 206.774-207.638-18.072-14.041-152.708-23.619-152.708-3.631 2.844 76.267-31.301 79.612-50.269 79.612zM83.936-27.765l685.749-30.8c0.764-0.035 1.534-0.051 2.305-0.051 28.373 0 51.373 23 51.373 51.373v919.077c0 1.069-0.035 2.138-0.1 3.204-1.772 28.319-26.162 49.842-54.481 48.070l-717.407-44.838c-27.821-1.733-49.178-25.343-48.128-53.203l31.651-843.436c1.005-26.717 22.329-48.199 49.036-49.396z" />
</font>
</defs>
</svg>
