<svg width="39" height="63" viewBox="0 0 39 63" fill="none" xmlns="http://www.w3.org/2000/svg">
<circle cx="1.5" cy="6.5" r="1.5" fill="#754EF9"/>
<circle cx="11.5" cy="6.5" r="1.5" fill="#754EF9"/>
<circle cx="21.5" cy="6.5" r="1.5" fill="#754EF9"/>
<circle cx="31.5" cy="6.5" r="1.5" fill="#754EF9"/>
<circle cx="1.5" cy="16.5" r="1.5" fill="#754EF9"/>
<circle cx="11.5" cy="16.5" r="1.5" fill="#754EF9"/>
<circle cx="21.5" cy="16.5" r="1.5" fill="#754EF9"/>
<circle cx="31.5" cy="16.5" r="1.5" fill="#754EF9"/>
<circle cx="1.5" cy="26.5" r="1.5" fill="#754EF9"/>
<circle cx="11.5" cy="26.5" r="1.5" fill="#754EF9"/>
<circle cx="21.5" cy="26.5" r="1.5" fill="#754EF9"/>
<circle cx="31.5" cy="26.5" r="1.5" fill="#754EF9"/>
<circle cx="1.5" cy="36.5" r="1.5" fill="#754EF9"/>
<circle cx="11.5" cy="36.5" r="1.5" fill="#754EF9"/>
<circle cx="21.5" cy="36.5" r="1.5" fill="#754EF9"/>
<circle cx="31.5" cy="36.5" r="1.5" fill="#754EF9"/>
<circle cx="1.5" cy="46.5" r="1.5" fill="#754EF9"/>
<circle cx="11.5" cy="46.5" r="1.5" fill="#754EF9"/>
<circle cx="21.5" cy="46.5" r="1.5" fill="#754EF9"/>
<circle cx="31.5" cy="46.5" r="1.5" fill="#754EF9"/>
<circle cx="1.5" cy="56.5" r="1.5" fill="#754EF9"/>
<circle cx="11.5" cy="56.5" r="1.5" fill="#754EF9"/>
<circle cx="21.5" cy="56.5" r="1.5" fill="#754EF9"/>
<circle cx="31.5" cy="56.5" r="1.5" fill="#754EF9"/>
</svg>
