<svg width="39" height="58" viewBox="0 0 39 58" fill="none" xmlns="http://www.w3.org/2000/svg">
<circle cx="1.5" cy="1.5" r="1.5" fill="#754EF9"/>
<circle cx="11.5" cy="1.5" r="1.5" fill="#754EF9"/>
<circle cx="21.5" cy="1.5" r="1.5" fill="#754EF9"/>
<circle cx="31.5" cy="1.5" r="1.5" fill="#754EF9"/>
<circle cx="1.5" cy="11.5" r="1.5" fill="#754EF9"/>
<circle cx="11.5" cy="11.5" r="1.5" fill="#754EF9"/>
<circle cx="21.5" cy="11.5" r="1.5" fill="#754EF9"/>
<circle cx="31.5" cy="11.5" r="1.5" fill="#754EF9"/>
<circle cx="1.5" cy="21.5" r="1.5" fill="#754EF9"/>
<circle cx="11.5" cy="21.5" r="1.5" fill="#754EF9"/>
<circle cx="21.5" cy="21.5" r="1.5" fill="#754EF9"/>
<circle cx="31.5" cy="21.5" r="1.5" fill="#754EF9"/>
<circle cx="1.5" cy="31.5" r="1.5" fill="#754EF9"/>
<circle cx="11.5" cy="31.5" r="1.5" fill="#754EF9"/>
<circle cx="21.5" cy="31.5" r="1.5" fill="#754EF9"/>
<circle cx="31.5" cy="31.5" r="1.5" fill="#754EF9"/>
<circle cx="1.5" cy="41.5" r="1.5" fill="#754EF9"/>
<circle cx="11.5" cy="41.5" r="1.5" fill="#754EF9"/>
<circle cx="21.5" cy="41.5" r="1.5" fill="#754EF9"/>
<circle cx="31.5" cy="41.5" r="1.5" fill="#754EF9"/>
<circle cx="1.5" cy="51.5" r="1.5" fill="#754EF9"/>
<circle cx="11.5" cy="51.5" r="1.5" fill="#754EF9"/>
<circle cx="21.5" cy="51.5" r="1.5" fill="#754EF9"/>
<circle cx="31.5" cy="51.5" r="1.5" fill="#754EF9"/>
</svg>
