<svg xmlns="http://www.w3.org/2000/svg" width="177" height="45" viewBox="0 0 177 45">
    <g fill="none" fill-rule="evenodd">
        <g>
            <g>
                <g transform="translate(-137 -36) translate(137 35) translate(0 1)">
                    <rect width="45" height="45" fill="#76A662" rx="4"/>
                    <g fill="#FFF">
                        <path d="M1.165 1.16v12.273c-.042 6.975 5.523 12.683 12.404 12.723h.075c6.884.002 12.515-5.59 12.554-12.469.022-3.337-1.28-6.476-3.662-8.842-2.373-2.355-5.533-3.663-8.9-3.686H1.166zm12.481 26.156h-.084C6.04 27.276-.044 21.041 0 13.43V0H13.64c3.678.023 7.127 1.45 9.72 4.022 2.602 2.585 4.027 6.02 4.004 9.673-.044 7.511-6.197 13.621-13.717 13.621z" transform="translate(9 9)"/>
                        <path d="M14.815 4.732v1.306c3.684.626 6.491 3.822 6.491 7.68 0 4.304-3.496 7.796-7.807 7.796-4.31 0-7.805-3.492-7.805-7.795 0-3.853 2.8-7.044 6.475-7.676v-1.31c-4.376.643-7.74 4.4-7.74 8.951 0 5.004 4.06 9.062 9.07 9.062 5.012 0 9.073-4.058 9.073-9.062 0-4.555-3.373-8.316-7.757-8.952" transform="translate(9 9)"/>
                        <path d="M14.078 17.267L12.943 17.267 12.943 2.857 14.078 2.857z" transform="translate(9 9)"/>
                    </g>
                    <path fill="#242424" fill-rule="nonzero" d="M71.725 34.696c3.273 0 6.051-1.132 8.334-3.395 2.282-2.284 3.424-5.075 3.424-8.372 0-3.298-1.142-6.083-3.424-8.357-2.283-2.274-5.06-3.41-8.334-3.41-3.273 0-6.045 1.136-8.317 3.41C61.136 16.846 60 19.632 60 22.93c0 3.297 1.136 6.082 3.408 8.356 2.272 2.274 5.044 3.41 8.317 3.41zm0-4.365c-2.067 0-3.8-.69-5.2-2.068-1.4-1.401-2.1-3.18-2.1-5.334 0-2.156.7-3.934 2.1-5.334 1.4-1.401 3.133-2.102 5.2-2.102s3.8.7 5.2 2.102c1.4 1.4 2.1 3.178 2.1 5.334 0 2.155-.7 3.927-2.1 5.317-1.4 1.39-3.133 2.085-5.2 2.085zM90.59 40.708v-8.372c1.227 1.573 2.971 2.36 5.232 2.36 2.175 0 4.033-.825 5.572-2.473 1.54-1.65 2.31-3.67 2.31-6.062 0-2.392-.77-4.412-2.31-6.061s-3.397-2.473-5.572-2.473c-2.26 0-4.005.787-5.232 2.36V18.08h-4.167v22.628h4.167zm4.457-9.989c-1.292 0-2.358-.42-3.198-1.26-.84-.862-1.26-1.962-1.26-3.298s.42-2.43 1.26-3.28c.84-.852 1.906-1.278 3.198-1.278s2.364.426 3.214 1.277c.85.851 1.276 1.945 1.276 3.281s-.425 2.43-1.276 3.281c-.85.852-1.922 1.277-3.214 1.277zM108.71 16.14c.711 0 1.32-.253 1.825-.76.506-.506.76-1.104.76-1.794s-.254-1.293-.76-1.81c-.506-.517-1.114-.776-1.825-.776-.689 0-1.286.259-1.792.776s-.76 1.12-.76 1.81.254 1.288.76 1.794c.506.507 1.103.76 1.792.76zm2.1 18.103V18.08h-4.167v16.163h4.167zm7.978 0v-8.728c0-1.336.323-2.339.97-3.007.645-.668 1.507-1.002 2.583-1.002.97 0 1.744.286 2.326.857.581.571.872 1.395.872 2.473v9.407h4.167v-9.924c0-2.09-.576-3.729-1.728-4.914-1.152-1.185-2.611-1.778-4.377-1.778-2.196 0-3.8.754-4.813 2.263v-1.81h-4.167v16.163h4.167zm18.638 0v-8.728c0-1.336.323-2.339.969-3.007.646-.668 1.507-1.002 2.584-1.002.969 0 1.744.286 2.325.857.582.571.872 1.395.872 2.473v9.407h4.167v-9.924c0-2.09-.576-3.729-1.728-4.914-1.152-1.185-2.61-1.778-4.377-1.778-2.196 0-3.8.754-4.812 2.263v-1.81h-4.167v16.163h4.167zm22.158.453c2.39 0 4.414-.82 6.072-2.457 1.658-1.66 2.488-3.686 2.488-6.078 0-2.392-.83-4.412-2.488-6.061s-3.682-2.473-6.072-2.473-4.41.824-6.056 2.473c-1.648 1.649-2.471 3.67-2.471 6.061 0 2.392.823 4.413 2.47 6.062 1.648 1.648 3.667 2.473 6.057 2.473zm0-4.074c-1.25 0-2.293-.42-3.133-1.26-.819-.84-1.228-1.908-1.228-3.2 0-1.294.415-2.36 1.244-3.201.829-.84 1.868-1.26 3.117-1.26 1.249 0 2.293.42 3.133 1.26.84.84 1.26 1.907 1.26 3.2 0 1.293-.42 2.36-1.26 3.2-.84.841-1.884 1.261-3.133 1.261zm13.921 4.041c.754 0 1.4-.27 1.938-.808.539-.539.808-1.185.808-1.94 0-.754-.27-1.4-.808-1.94-.538-.538-1.184-.807-1.938-.807-.753 0-1.4.27-1.938.808-.538.539-.807 1.185-.807 1.94 0 .754.27 1.4.807 1.94.539.538 1.185.807 1.938.807z"/>
                </g>
            </g>
        </g>
    </g>
</svg>
